<?xml version="1.0" standalone="no"?><!DOCTYPE svg PUBLIC "-//W3C//DTD SVG 1.1//EN" "http://www.w3.org/Graphics/SVG/1.1/DTD/svg11.dtd"><svg t="1769503758133" class="icon" viewBox="0 0 1117 1024" version="1.1" xmlns="http://www.w3.org/2000/svg" p-id="7063" xmlns:xlink="http://www.w3.org/1999/xlink" width="279.25" height="256"><path d="M893.672727 0H0v208.989091h893.672727V0zM173.242182 162.257455c-28.299636 0-51.665455-25.786182-51.665455-58.461091 0-31.930182 23.458909-58.274909 51.665455-58.274909 28.392727 0 51.758545 25.786182 51.758545 58.274909 0 32.581818-22.900364 58.461091-51.758545 58.461091z m203.869091 411.089454H0v370.594909h378.135273a84.992 84.992 0 0 1-1.024-12.194909v-358.4zM893.672727 288.861091H0v203.962182h377.018182v-47.290182c0-31.278545 22.993455-57.157818 50.734545-57.157818H893.672727V288.861091zM173.242182 446.743273c-28.299636 0-51.665455-25.786182-51.665455-58.368 0-31.930182 23.458909-58.368 51.665455-58.368 28.392727 0 51.758545 25.786182 51.758545 58.368 0 31.930182-22.900364 58.368-51.758545 58.368z m899.165091 53.061818H491.52c-24.576 0-44.683636 21.410909-44.683636 47.476364v404.666181c0 26.065455 20.107636 47.476364 44.683636 47.476364h580.887273c24.576 0 44.683636-21.410909 44.683636-47.476364V547.374545c0-26.810182-20.107636-47.662545-44.683636-47.662545z m-63.022546 161.792a24.017455 24.017455 0 0 1-11.170909 15.453091L798.440727 800.209455a24.110545 24.110545 0 0 1-15.080727 5.957818h-0.558545c-5.585455 0-11.170909-1.861818-15.080728-5.957818L567.947636 677.050182a25.6 25.6 0 0 1-11.170909-15.453091 29.789091 29.789091 0 0 1 2.234182-19.642182 23.738182 23.738182 0 0 1 33.512727-9.588364l190.836364 117.294546 190.836364-117.201455a22.807273 22.807273 0 0 1 12.288-3.630545c8.936727 0 16.756364 4.840727 21.224727 13.125818 2.234182 5.957818 3.351273 13.032727 1.675636 19.549091z" p-id="7064" fill=""></path></svg>